# xmcd
#
# Track frame offsets:
#	150
#	2143
#	21513
#	37581
#	55368
#	70272
#	82552
#	97103
#	99113
#	113276
#	131925
#	149769
#	171744
#	175503
#	191307
#	206857
#
# Disc length: 3046 seconds
#
# Revision: 1
# Processed by: cddbd v1.5.2PL0 Copyright (c) Steve Scherf et al.
# Submitted via: audiograbber 1.83.01
#
DISCID=d50be410
DTITLE=Anderson .Paak - Venice
DYEAR=2016
DGENRE=R&B
TTITLE0=Waves
TTITLE1=Milk and Honey
TTITLE2=The City
TTITLE3=Might Be
TTITLE4=Miss Right
TTITLE5=Put You On
TTITLE6=Already Ft. Sir
TTITLE7=Dogtown
TTITLE8=Miss That Whip
TTITLE9=Get Em Up
TTITLE10=Paint
TTITLE11=Drugs
TTITLE12=Mike Doralude
TTITLE13=Luh You
TTITLE14=Right There
TTITLE15=Off the Ground
EXTD=
EXTT0=
EXTT1=
EXTT2=
EXTT3=
EXTT4=
EXTT5=
EXTT6=
EXTT7=
EXTT8=
EXTT9=
EXTT10=
EXTT11=
EXTT12=
EXTT13=
EXTT14=
EXTT15=
PLAYORDER=
